<svg xmlns="http://www.w3.org/2000/svg" width="624" height="422"><style>.a{fill:white;}.b{fill:black;}.c{fill:none;stroke-dasharray:10;stroke:black;}.d{fill:none;}.e{fill:white;stroke-dasharray:;stroke-width:3;stroke:black;}.f{fill:black;font-weight:bold;}.g{fill:none;stroke-dasharray:;stroke:black;}</style><rect width="624" height="422" class="a"></rect><text font-family="sans-serif" font-size="16.5pt" text-decoration="normal" x="199.4" y="24.5" dominant-baseline="alphabetic" class="b">  WebSub Flow Diagram</text><path paint-order="fill stroke markers" d="M60.9 95.9L60.9 422.6" class="c"></path><path paint-order="fill stroke markers" d="M323.1 95.9L323.1 422.6" class="c"></path><path paint-order="fill stroke markers" d="M585.2 95.9L585.2 422.6" class="c"></path><path paint-order="fill stroke markers" d="M8.2 51.8L113.7 51.8 113.7 95.9 8.2 95.9 8.2 51.8Z" class="e"></path><text font-family="sans-serif" font-size="11pt" text-decoration="normal" x="25.9" y="79.6" dominant-baseline="alphabetic" class="b">  Subscriber</text><path paint-order="fill stroke markers" d="M274.8 51.8L371.4 51.8 371.4 95.9 274.8 95.9 274.8 51.8Z" class="e"></path><text font-family="sans-serif" font-size="11pt" text-decoration="normal" x="292.5" y="79.6" dominant-baseline="alphabetic" class="b">  Publisher</text><path paint-order="fill stroke markers" d="M554 51.8L616.4 51.8 616.4 95.9 554 95.9 554 51.8Z" class="e"></path><text font-family="sans-serif" font-size="11pt" text-decoration="normal" x="571.8" y="79.6" dominant-baseline="alphabetic" class="b">  Hub</text><rect x="89.6" y="128.6" width="196.4" height="21.2" class="a"></rect><rect x="89.6" y="144.9" width="204.9" height="21.2" class="a"></rect><text font-family="sans-serif" font-size="11pt" text-decoration="normal" x="92" y="143.3" dominant-baseline="alphabetic" class="b">  Subscriber discovers the </text><text font-family="sans-serif" font-size="11pt" text-decoration="normal" x="256.6" y="143.3" dominant-baseline="alphabetic" class="f">  hub</text><text font-family="sans-serif" font-size="11pt" text-decoration="normal" x="283.5" y="143.3" dominant-baseline="alphabetic" class="b"></text><text font-family="sans-serif" font-size="11pt" text-decoration="normal" x="92" y="159.6" dominant-baseline="alphabetic" class="b">  advertised by publisher's </text><text font-family="sans-serif" font-size="11pt" text-decoration="normal" x="257" y="159.6" dominant-baseline="alphabetic" class="f">  topic</text><text font-family="sans-serif" font-size="11pt" text-decoration="normal" x="292" y="159.6" dominant-baseline="alphabetic" class="b"></text><path paint-order="fill stroke markers" d="M60.9 166.1L323.1 166.1" class="g"></path><path paint-order="stroke fill markers" d="M309.5 159.3L323.1 166.1 309.5 172.9Z" class="b"></path><rect x="80.3" y="190.6" width="485.6" height="21.2" class="a"></rect><text font-family="sans-serif" font-size="11pt" text-decoration="normal" x="82.7" y="205.3" dominant-baseline="alphabetic" class="b">  Subscriber makes a POST to the </text><text font-family="sans-serif" font-size="11pt" text-decoration="normal" x="301.1" y="205.3" dominant-baseline="alphabetic" class="f">hub</text> <text font-family="sans-serif" font-size="11pt" text-decoration="normal" x="331" y="205.3" dominant-baseline="alphabetic" class="b">to subscribe to updates about </text><text font-family="sans-serif" font-size="11pt" text-decoration="normal" x="528.4" y="205.3" dominant-baseline="alphabetic" class="f">topic</text><text font-family="sans-serif" font-size="11pt" text-decoration="normal" x="563.4" y="205.3" dominant-baseline="alphabetic" class="b"></text><path paint-order="fill stroke markers" d="M60.9 211.9L585.2 211.9" class="g"></path><path paint-order="stroke fill markers" d="M571.6 205.1L585.2 211.9 571.6 218.7Z" class="b"></path><rect x="163.8" y="236.4" width="318.6" height="21.2" class="a"></rect><text font-family="sans-serif" font-size="11pt" text-decoration="normal" x="166.2" y="251.1" dominant-baseline="alphabetic" class="b">  Hub verifies the subscription attempt with a GET</text><path paint-order="fill stroke markers" d="M585.2 257.6L60.9 257.6" style="fill:none;stroke-dasharray:7;stroke:black"></path><path paint-order="stroke fill markers" d="M74.5 250.8L60.9 257.6 74.5 264.4Z" class="b"></path><rect x="368.2" y="282.1" width="171.9" height="21.2" class="a"></rect><rect x="368.2" y="298.4" width="100.3" height="21.2" class="a"></rect><text font-family="sans-serif" font-size="11pt" text-decoration="normal" x="370.6" y="296.8" dominant-baseline="alphabetic" class="b">  Publisher notifies the </text><text font-family="sans-serif" font-size="11pt" text-decoration="normal" x="510.8" y="296.8" dominant-baseline="alphabetic" class="f">  hub</text><text font-family="sans-serif" font-size="11pt" text-decoration="normal" x="537.7" y="296.8" dominant-baseline="alphabetic" class="b"></text><text font-family="sans-serif" font-size="11pt" text-decoration="normal" x="370.6" y="313.1" dominant-baseline="alphabetic" class="b">  of new content</text><path paint-order="fill stroke markers" d="M323.1 319.7L585.2 319.7" class="g"></path><path paint-order="stroke fill markers" d="M571.6 312.9L585.2 319.7 571.6 326.5Z" class="b"></path><rect x="105.1" y="344.2" width="435.9" height="21.2" class="a"></rect><text font-family="sans-serif" font-size="11pt" text-decoration="normal" x="107.6" y="358.9" dominant-baseline="alphabetic" class="b">  Hub delivers the contents of </text><text font-family="sans-serif" font-size="11pt" text-decoration="normal" x="293.4" y="358.9" dominant-baseline="alphabetic" class="f">  topic</text><text font-family="sans-serif" font-size="11pt" text-decoration="normal" x="330" y="358.9" dominant-baseline="alphabetic" class="b">to each subscriber with a POST</text><path paint-order="fill stroke markers" d="M585.2 365.4L60.9 365.4" class="g"></path><path paint-order="stroke fill markers" d="M74.5 358.6L60.9 365.4 74.5 372.2Z" class="b"></path></svg>
